<?xml version="1.0" standalone="no"?>
<!DOCTYPE svg PUBLIC "-//W3C//DTD SVG 20010904//EN"
 "http://www.w3.org/TR/2001/REC-SVG-20010904/DTD/svg10.dtd">
<svg version="1.0" xmlns="http://www.w3.org/2000/svg"
 width="437.000000pt" height="128.000000pt" viewBox="0 0 437.000000 128.000000"
 preserveAspectRatio="xMidYMid meet">
<metadata>
Created by potrace 1.16, written by Peter Selinger 2001-2019
</metadata>
<g transform="translate(0.000000,128.000000) scale(0.100000,-0.100000)"
fill="#000000" stroke="none">
<path d="M0 640 l0 -640 2185 0 2185 0 0 640 0 640 -2185 0 -2185 0 0 -640z
m2365 378 c3 -13 6 -57 7 -98 2 -56 6 -74 16 -72 7 1 33 8 56 14 34 9 50 9 75
-2 46 -19 63 -60 68 -165 4 -69 10 -97 25 -119 27 -38 12 -47 -72 -44 -63 3
-65 4 -61 28 2 14 5 66 8 117 4 83 2 94 -16 112 -27 27 -46 26 -76 -4 -20 -19
-25 -34 -25 -77 0 -30 6 -77 14 -107 13 -52 13 -53 -11 -62 -31 -12 -104 -11
-123 1 -13 8 -12 14 5 45 17 32 19 56 18 206 -1 165 -1 171 -24 195 -24 25
-24 26 -5 40 11 8 41 14 68 14 41 0 48 -3 53 -22z m839 6 c3 -9 6 -102 6 -207
0 -176 2 -196 21 -231 26 -49 17 -56 -71 -56 -88 0 -99 8 -71 53 19 32 21 48
21 209 0 162 -1 176 -20 193 -40 36 -22 51 66 54 30 1 44 -4 48 -15z m-2447
-61 c-83 -141 -137 -235 -137 -241 0 -4 -8 -20 -18 -35 -19 -28 -19 -27 -21
102 l-2 129 103 55 c57 30 105 53 107 52 1 -2 -13 -30 -32 -62z m256 -39 c16
-9 17 -24 15 -138 l-3 -127 -20 38 c-11 21 -46 82 -77 136 -32 53 -58 100 -58
102 0 3 -11 23 -25 45 -14 22 -25 42 -25 45 0 4 137 -67 193 -101z m363 31 c1
-50 63 -246 89 -282 11 -15 18 0 55 112 25 77 40 140 37 155 -15 69 -18 65 58
65 78 0 85 -7 46 -54 -13 -16 -48 -93 -77 -172 -77 -205 -93 -238 -122 -246
-48 -12 -55 0 -172 311 -21 55 -45 99 -63 116 -44 41 -29 51 66 48 l82 -3 1
-50z m718 -33 c7 -24 20 -39 43 -50 42 -20 42 -39 -2 -57 -40 -17 -50 -51 -43
-142 5 -57 27 -89 55 -79 19 8 43 -4 43 -20 0 -40 -120 -59 -158 -24 -26 24
-29 37 -37 154 -3 58 -11 96 -20 106 -20 22 -19 27 8 60 12 15 30 42 39 59 24
44 58 40 72 -7z m836 -67 c61 -31 100 -115 86 -185 -17 -90 -78 -140 -171
-140 -70 0 -114 22 -145 72 -25 41 -27 135 -4 184 38 79 149 111 234 69z
m-1067 -52 c4 -38 7 -98 7 -134 0 -52 5 -72 21 -93 11 -14 17 -30 14 -36 -3
-5 -44 -10 -91 -10 -93 0 -103 8 -64 57 17 21 20 41 20 113 0 79 -2 88 -25
110 -38 36 -14 55 76 59 l36 1 6 -67z m1717 57 c20 -12 -2 -56 -85 -169 -36
-49 -65 -94 -65 -101 0 -21 77 -5 115 25 20 14 40 23 46 19 12 -7 6 -81 -8
-95 -5 -5 -68 -8 -144 -7 l-134 3 3 24 c1 13 36 70 77 126 97 134 100 140 50
132 -22 -4 -52 -16 -68 -28 -34 -25 -57 -19 -57 16 0 60 10 65 138 65 64 0
124 -4 132 -10z m-2605 -236 c-22 -14 -68 -41 -103 -60 l-62 -36 -108 61 -107
61 210 0 210 -1 -40 -25z"/>
<path d="M2807 818 c-57 -44 -46 -211 17 -239 20 -10 30 -9 50 5 32 20 39 49
34 133 -4 57 -8 69 -32 89 -31 27 -45 29 -69 12z"/>
</g>
</svg>
